<?xml version="1.0" encoding="UTF-8"?>
<svg width="138px" height="20px" viewBox="0 0 138 20" version="1.1" xmlns="http://www.w3.org/2000/svg" xmlns:xlink="http://www.w3.org/1999/xlink">
    <title>组合logo</title>
    <g id="页面-1" stroke="none" stroke-width="1" fill="none" fill-rule="evenodd">
        <g id="专家管理" transform="translate(-30.000000, -20.000000)" fill="#FFFFFF" fill-rule="nonzero">
            <g id="组合logo" transform="translate(30.000000, 20.000000)">
                <path d="M94.1978947,4.83368421 L92.96,4.83368421 C92.1347368,2.35789474 89.7768421,0.530526316 87.0063158,0.530526316 C84.1178947,0.530526316 81.7010526,2.47578947 80.9347368,5.12842105 C78.1052632,5.77684211 75.9831579,8.25263158 75.9831579,11.2589474 C75.9831579,13.9705263 77.7515789,16.3284211 80.1684211,17.1536842 L80.5810526,15.6210526 C78.8126316,14.9136842 77.5157895,13.2042105 77.5157895,11.2 C77.5157895,9.13684211 78.8126316,7.36842105 80.6989474,6.72 C81.1705263,6.54315789 81.7010526,6.42526316 82.2315789,6.42526316 C82.2905263,5.89473684 82.4084211,5.36421053 82.5852632,4.89263158 C83.2926316,3.18315789 85.0021053,1.94526316 86.9473684,1.94526316 C88.8336842,1.94526316 90.4842105,3.06526316 91.2505263,4.71578947 C91.4863158,5.18736842 91.6042105,5.65894737 91.6631579,6.18947368 C91.7221053,6.18947368 91.7810526,6.18947368 91.7810526,6.18947368 L93.1957895,6.18947368 L94.08,6.18947368 C96.8505263,6.18947368 99.0905263,8.42947368 99.0905263,11.2 C99.0905263,13.9115789 96.9684211,16.0926316 94.2568421,16.2105263 C94.8463158,15.3852632 95.0231579,14.3831579 94.7873684,13.44 L93.1368421,13.44 L91.6042105,13.44 L91.1915789,14.9726316 L93.0778947,14.9726316 C92.96,15.2084211 92.8421053,15.3852632 92.6652632,15.5621053 C91.8989474,16.3284211 90.6610526,16.3873684 89.9536842,15.5621053 C89.1284211,14.6189474 87.6547368,12.6736842 86.8294737,11.7305263 C85.8863158,10.6694737 84.4126316,10.4336842 83.1747368,10.9052632 L83.5284211,9.54947368 L86.6526316,9.54947368 L87.0652632,8.01684211 L83.9410526,8.01684211 L82.4084211,8.01684211 L81.9957895,9.54947368 L81.0526316,13.2042105 C81.0526316,13.2631579 80.9936842,13.3810526 80.9936842,13.44 L82.5263158,13.44 L82.5852632,13.44 C82.7031579,13.2042105 82.8210526,13.0273684 82.9978947,12.8505263 C83.7642105,12.0842105 85.0021053,12.0842105 85.7094737,12.8505263 C86.5347368,13.7936842 88.0084211,15.7389474 88.8336842,16.6821053 C89.4821053,17.4484211 90.4252632,17.7431579 91.3684211,17.7431579 C91.4273684,17.7431579 91.5452632,17.7431579 91.6042105,17.7431579 L93.9031579,17.7431579 C97.4989474,17.7431579 100.446316,14.7957895 100.446316,11.2 C100.446316,7.60421053 97.7936842,4.83368421 94.1978947,4.83368421 Z" id="路径"></path>
                <path d="M93.4905263,12.6736842 C93.4905263,12.7915789 93.5494737,12.8505263 93.6673684,12.8505263 C93.7852632,12.8505263 93.8442105,12.7915789 93.8442105,12.6736842 C93.8442105,12.5557895 93.7852632,12.4968421 93.6673684,12.4968421 C93.5494737,12.4968421 93.4905263,12.5557895 93.4905263,12.6736842 Z" id="路径"></path>
                <path d="M93.9031579,12.0252632 C93.7852632,12.0252632 93.7263158,12.0842105 93.7263158,12.2021053 C93.7263158,12.32 93.7852632,12.3789474 93.9031579,12.3789474 C94.0210526,12.3789474 94.08,12.32 94.08,12.2021053 C94.08,12.0842105 94.0210526,12.0252632 93.9031579,12.0252632 Z" id="路径"></path>
                <path d="M93.4905263,11.6715789 C93.3726316,11.6715789 93.3136842,11.7305263 93.3136842,11.8484211 C93.3136842,11.9663158 93.3726316,12.0252632 93.4905263,12.0252632 C93.6084211,12.0252632 93.6673684,11.9663158 93.6673684,11.8484211 C93.6673684,11.7305263 93.6084211,11.6715789 93.4905263,11.6715789 Z" id="路径"></path>
                <circle id="椭圆形" cx="93.9031579" cy="13.0863158" r="1"></circle>
                <circle id="椭圆形" cx="94.2568421" cy="12.6147368" r="1"></circle>
                <circle id="椭圆形" cx="94.5515789" cy="13.0863158" r="1"></circle>
                <path d="M89.0694737,11.9663158 C88.8336842,12.2610526 88.48,12.6147368 88.1852632,13.0273684 C88.4210526,13.2631579 88.5978947,13.5578947 88.8336842,13.7936842 C88.9515789,13.9115789 89.0694737,14.0884211 89.1873684,14.2063158 C89.5410526,13.7347368 89.9536842,13.2631579 90.1894737,12.9684211 C90.8378947,12.2610526 91.84,12.2021053 92.6063158,12.6736842 L92.6652632,12.6736842 L92.6652632,12.6147368 C92.6063158,12.5557895 92.6063158,12.4968421 92.6063158,12.4378947 C92.6063158,12.3789474 92.6652632,12.32 92.7242105,12.32 C92.7831579,12.32 92.7831579,12.32 92.7831579,12.32 C92.8421053,12.32 92.8421053,12.32 92.9010526,12.2610526 C92.9010526,12.2021053 92.9010526,12.2021053 92.9010526,12.1431579 C92.8421053,12.0842105 92.8421053,12.0252632 92.8421053,11.9663158 C92.8421053,11.9073684 92.9010526,11.8484211 92.96,11.8484211 C93.0189474,11.8484211 93.0189474,11.8484211 93.0778947,11.8484211 C93.1368421,11.8484211 93.1368421,11.8484211 93.1957895,11.7894737 C93.1957895,11.7305263 93.1957895,11.7305263 93.1957895,11.6715789 C93.1368421,11.6126316 93.1368421,11.5536842 93.1368421,11.4947368 C93.1368421,11.4357895 93.1957895,11.3768421 93.2547368,11.3768421 C93.3136842,11.3768421 93.3136842,11.3768421 93.3726316,11.3768421 L93.4315789,11.3768421 C93.4315789,11.3178947 93.4315789,11.3178947 93.4315789,11.3178947 C92.0168421,10.6105263 90.1894737,10.7284211 89.0694737,11.9663158 Z M92.3115789,11.0821053 C92.4294737,11.0821053 92.4884211,11.1410526 92.4884211,11.2589474 C92.4884211,11.3768421 92.4294737,11.4357895 92.3115789,11.4357895 C92.1936842,11.4357895 92.1347368,11.3768421 92.1347368,11.2589474 C92.1347368,11.1410526 92.1936842,11.0821053 92.3115789,11.0821053 Z M91.7810526,11.0231579 C91.8989474,11.0231579 91.9578947,11.0821053 91.9578947,11.2 C91.9578947,11.3178947 91.8989474,11.3768421 91.7810526,11.3768421 C91.6631579,11.3768421 91.6042105,11.3178947 91.6042105,11.2 C91.6042105,11.0821053 91.6631579,11.0231579 91.7810526,11.0231579 Z M91.0736842,11.2 C91.0736842,11.1410526 91.1326316,11.0231579 91.2505263,11.0231579 C91.3684211,11.0231579 91.4273684,11.0821053 91.4273684,11.2 C91.4273684,11.2589474 91.3684211,11.3768421 91.2505263,11.3768421 C91.1326316,11.3768421 91.0736842,11.2589474 91.0736842,11.2 Z M91.4863158,11.8484211 C91.3684211,11.8484211 91.3094737,11.7894737 91.3094737,11.6715789 C91.3094737,11.5536842 91.3684211,11.4947368 91.4863158,11.4947368 C91.6042105,11.4947368 91.6631579,11.5536842 91.6631579,11.6715789 C91.6631579,11.7894737 91.5452632,11.8484211 91.4863158,11.8484211 Z M91.7810526,12.3789474 C91.6631579,12.3789474 91.6042105,12.32 91.6042105,12.2021053 C91.6042105,12.0842105 91.6631579,12.0252632 91.7810526,12.0252632 C91.8989474,12.0252632 91.9578947,12.0842105 91.9578947,12.2021053 C91.9578947,12.32 91.84,12.3789474 91.7810526,12.3789474 Z M92.0168421,11.9073684 C91.8989474,11.9073684 91.84,11.8484211 91.84,11.7305263 C91.84,11.6126316 91.8989474,11.5536842 92.0168421,11.5536842 C92.1347368,11.5536842 92.1936842,11.6126316 92.1936842,11.7305263 C92.1936842,11.8484211 92.1347368,11.9073684 92.0168421,11.9073684 Z M92.3705263,12.4968421 C92.2526316,12.4968421 92.1936842,12.4378947 92.1936842,12.32 C92.1936842,12.2021053 92.2526316,12.1431579 92.3705263,12.1431579 C92.4884211,12.1431579 92.5473684,12.2021053 92.5473684,12.32 C92.5473684,12.4378947 92.4884211,12.4968421 92.3705263,12.4968421 Z M92.6063158,12.0842105 C92.4884211,12.0842105 92.4294737,12.0252632 92.4294737,11.9073684 C92.4294737,11.7894737 92.4884211,11.7305263 92.6063158,11.7305263 C92.7242105,11.7305263 92.7831579,11.7894737 92.7831579,11.9073684 C92.7831579,11.9663158 92.7242105,12.0842105 92.6063158,12.0842105 Z M92.8421053,11.6126316 C92.7242105,11.6126316 92.6652632,11.5536842 92.6652632,11.4357895 C92.6652632,11.3178947 92.7242105,11.2589474 92.8421053,11.2589474 C92.96,11.2589474 93.0189474,11.3178947 93.0189474,11.4357895 C93.0189474,11.5536842 92.96,11.6126316 92.8421053,11.6126316 Z" id="形状"></path>
                <path d="M93.3136842,13.2631579 C93.3726316,13.2631579 93.4315789,13.2042105 93.4315789,13.1452632 C93.4315789,13.0863158 93.3726316,13.0273684 93.3136842,13.0273684 C93.2547368,13.0273684 93.1957895,13.0863158 93.1957895,13.1452632 C93.1368421,13.2042105 93.1957895,13.2631579 93.3136842,13.2631579 Z" id="路径"></path>
                <path d="M93.3726316,12.2610526 C93.3726316,12.1431579 93.3136842,12.0842105 93.1957895,12.0842105 C93.0778947,12.0842105 93.0189474,12.1431579 93.0189474,12.2610526 C93.0189474,12.3789474 93.0778947,12.4378947 93.1957895,12.4378947 C93.3136842,12.4378947 93.3726316,12.3789474 93.3726316,12.2610526 Z" id="路径"></path>
                <circle id="椭圆形" cx="92.96" cy="12.7326316" r="1"></circle>
                <path d="M82.5852632,15.0315789 C82.5263158,15.0315789 82.4673684,15.0905263 82.4084211,15.1494737 C82.3494737,15.2084211 82.4673684,15.2673684 82.5263158,15.3263158 C82.5852632,15.3263158 82.6442105,15.2673684 82.7031579,15.2084211 C82.7621053,15.1494737 82.6442105,15.0315789 82.5852632,15.0315789 Z" id="路径"></path>
                <path d="M82.8210526,15.6210526 C82.7031579,15.6210526 82.6442105,15.68 82.6442105,15.7978947 C82.6442105,15.9157895 82.7031579,15.9747368 82.8210526,15.9747368 C82.9389474,15.9747368 82.9978947,15.9157895 82.9978947,15.7978947 C82.9978947,15.68 82.9389474,15.6210526 82.8210526,15.6210526 Z" id="路径"></path>
                <path d="M82.1726316,16.3873684 C82.0547368,16.3873684 81.9957895,16.4463158 81.9957895,16.5642105 C81.9957895,16.6821053 82.0547368,16.7410526 82.1726316,16.7410526 C82.2905263,16.7410526 82.3494737,16.6821053 82.3494737,16.5642105 C82.3494737,16.4463158 82.2905263,16.3873684 82.1726316,16.3873684 Z" id="路径"></path>
                <path d="M82.8210526,16.9178947 C82.8210526,16.8 82.7621053,16.7410526 82.6442105,16.7410526 C82.5263158,16.7410526 82.4673684,16.8 82.4673684,16.9178947 C82.4673684,17.0357895 82.5263158,17.0947368 82.6442105,17.0947368 C82.7031579,17.1536842 82.8210526,17.0357895 82.8210526,16.9178947 Z" id="路径"></path>
                <path d="M83.2926316,16.3873684 C83.4105263,16.3873684 83.4694737,16.3284211 83.4694737,16.2105263 C83.4694737,16.0926316 83.4105263,16.0336842 83.2926316,16.0336842 C83.1747368,16.0336842 83.1157895,16.0926316 83.1157895,16.2105263 C83.1157895,16.3284211 83.2336842,16.3873684 83.2926316,16.3873684 Z" id="路径"></path>
                <path d="M82.9978947,16.3873684 C82.88,16.3873684 82.8210526,16.4463158 82.8210526,16.5642105 C82.8210526,16.6821053 82.88,16.7410526 82.9978947,16.7410526 C83.1157895,16.7410526 83.1747368,16.6821053 83.1747368,16.5642105 C83.1747368,16.5052632 83.0568421,16.3873684 82.9978947,16.3873684 Z" id="路径"></path>
                <path d="M81.5831579,15.2084211 C81.5831579,15.1494737 81.5242105,15.0315789 81.4063158,15.0315789 C81.3473684,15.0315789 81.2294737,15.0905263 81.2294737,15.2084211 C81.2294737,15.2673684 81.2884211,15.3852632 81.4063158,15.3852632 C81.5242105,15.3852632 81.5831579,15.2673684 81.5831579,15.2084211 Z" id="路径"></path>
                <path d="M86.8294737,14.6778947 C86.4757895,15.0905263 86.1221053,15.5031579 85.9452632,15.7978947 C85.3557895,16.4463158 84.4715789,16.5052632 83.7642105,16.2105263 L83.7052632,16.2105263 L83.7052632,16.2105263 L83.7052632,16.2694737 C83.7052632,16.3284211 83.7642105,16.3873684 83.7052632,16.3873684 C83.7052632,16.4463158 83.6463158,16.5052632 83.5873684,16.5052632 C83.5284211,16.5052632 83.4694737,16.5052632 83.4694737,16.5052632 L83.4105263,16.5052632 L83.4105263,16.5052632 L83.4105263,16.5642105 C83.4105263,16.6231579 83.4105263,16.6821053 83.4105263,16.6821053 C83.4105263,16.7410526 83.3515789,16.8 83.2926316,16.8 C83.2336842,16.8 83.1747368,16.8 83.1157895,16.8 L83.0568421,16.8 L83.0568421,16.8 L83.0568421,16.8589474 C83.0568421,16.9178947 83.1157895,16.9178947 83.0568421,16.9768421 C83.0568421,17.0357895 82.9978947,17.0947368 82.9389474,17.0947368 C82.88,17.1536842 82.8210526,17.0947368 82.7621053,17.0947368 L82.7031579,17.0947368 L82.7031579,17.1536842 C84.0589474,18.0968421 86.0042105,17.9789474 87.1242105,16.6821053 C87.3010526,16.4463158 87.5368421,16.2105263 87.8315789,15.8568421 L86.8294737,14.6778947 Z M84.4126316,16.5052632 C84.5305263,16.5052632 84.5894737,16.5642105 84.5894737,16.6821053 C84.5894737,16.8 84.5305263,16.8589474 84.4126316,16.8589474 C84.2947368,16.8589474 84.2357895,16.8 84.2357895,16.6821053 C84.2357895,16.5642105 84.2947368,16.5052632 84.4126316,16.5052632 Z M83.9410526,16.3873684 C84.0589474,16.3873684 84.1178947,16.4463158 84.1178947,16.5642105 C84.1178947,16.6821053 84.0589474,16.7410526 83.9410526,16.7410526 C83.8231579,16.7410526 83.7642105,16.6821053 83.7642105,16.5642105 C83.7642105,16.5052632 83.8231579,16.3873684 83.9410526,16.3873684 Z M83.2926316,17.5663158 C83.1747368,17.5663158 83.1157895,17.5073684 83.1157895,17.3894737 C83.1157895,17.2715789 83.1747368,17.2126316 83.2926316,17.2126316 C83.4105263,17.2126316 83.4694737,17.2715789 83.4694737,17.3894737 C83.4694737,17.5073684 83.4105263,17.5663158 83.2926316,17.5663158 Z M83.4105263,16.9768421 C83.4105263,16.8589474 83.4694737,16.8 83.5873684,16.8 C83.7052632,16.8 83.7642105,16.8589474 83.7642105,16.9768421 C83.7642105,17.0947368 83.7052632,17.1536842 83.5873684,17.1536842 C83.4694737,17.1536842 83.4105263,17.0947368 83.4105263,16.9768421 Z M83.8231579,17.6842105 C83.7052632,17.6842105 83.6463158,17.6252632 83.6463158,17.5073684 C83.6463158,17.3894737 83.7052632,17.3305263 83.8231579,17.3305263 C83.9410526,17.3305263 84,17.3894737 84,17.5073684 C84,17.6252632 83.8821053,17.6842105 83.8231579,17.6842105 Z M83.9410526,17.0947368 C83.9410526,16.9768421 84,16.9178947 84.1178947,16.9178947 C84.2357895,16.9178947 84.2947368,16.9768421 84.2947368,17.0947368 C84.2947368,17.2126316 84.2357895,17.2715789 84.1178947,17.2715789 C84,17.2715789 83.9410526,17.2126316 83.9410526,17.0947368 Z M84.2947368,17.8021053 C84.1768421,17.8021053 84.1178947,17.7431579 84.1178947,17.6252632 C84.1178947,17.5073684 84.1768421,17.4484211 84.2947368,17.4484211 C84.4126316,17.4484211 84.4715789,17.5073684 84.4715789,17.6252632 C84.4715789,17.7431579 84.4126316,17.8021053 84.2947368,17.8021053 Z M84.5894737,17.3305263 C84.4715789,17.3305263 84.4126316,17.2715789 84.4126316,17.1536842 C84.4126316,17.0357895 84.4715789,16.9768421 84.5894737,16.9768421 C84.7073684,16.9768421 84.7663158,17.0357895 84.7663158,17.1536842 C84.7663158,17.2715789 84.7073684,17.3305263 84.5894737,17.3305263 Z M84.8842105,17.8021053 C84.8252632,17.8021053 84.7073684,17.7431579 84.7073684,17.6252632 C84.7073684,17.5663158 84.7663158,17.4484211 84.8842105,17.4484211 C84.9431579,17.4484211 85.0610526,17.5073684 85.0610526,17.6252632 C85.0610526,17.7431579 85.0021053,17.8021053 84.8842105,17.8021053 Z" id="形状"></path>
                <path d="M81.76,15.7389474 C81.76,15.6210526 81.7010526,15.5621053 81.5831579,15.5621053 C81.4652632,15.5621053 81.4063158,15.6210526 81.4063158,15.7389474 C81.4063158,15.8568421 81.4652632,15.9157895 81.5831579,15.9157895 C81.7010526,15.9157895 81.76,15.7978947 81.76,15.7389474 Z" id="路径"></path>
                <path d="M82.5263158,16.3284211 C82.6442105,16.3284211 82.7031579,16.2694737 82.7031579,16.1515789 C82.7031579,16.0336842 82.6442105,15.9747368 82.5263158,15.9747368 C82.4084211,15.9747368 82.3494737,16.0336842 82.3494737,16.1515789 C82.3494737,16.2694737 82.4673684,16.3284211 82.5263158,16.3284211 Z" id="路径"></path>
                <path d="M82.2315789,15.8568421 C82.3494737,15.8568421 82.4084211,15.7978947 82.4084211,15.68 C82.4084211,15.5621053 82.3494737,15.5031579 82.2315789,15.5031579 C82.1136842,15.5031579 82.0547368,15.5621053 82.0547368,15.68 C82.0547368,15.7978947 82.1136842,15.8568421 82.2315789,15.8568421 Z" id="路径"></path>
                <path d="M81.8778947,15.9747368 C81.76,15.9747368 81.7010526,16.0336842 81.7010526,16.1515789 C81.7010526,16.2694737 81.76,16.3284211 81.8778947,16.3284211 C81.9957895,16.3284211 82.0547368,16.2694737 82.0547368,16.1515789 C82.0547368,16.0336842 81.9368421,15.9747368 81.8778947,15.9747368 Z" id="路径"></path>
                <path d="M81.9957895,15.0315789 C81.9368421,15.0315789 81.8189474,15.0905263 81.8189474,15.2084211 C81.8189474,15.2673684 81.8778947,15.3852632 81.9957895,15.3852632 C82.0547368,15.3852632 82.1726316,15.3263158 82.1726316,15.2084211 C82.1726316,15.0905263 82.1136842,15.0315789 81.9957895,15.0315789 Z" id="路径"></path>
                <path d="M106.871579,11.2589474 L106.930526,17.5663158 L107.696842,17.5663158 L107.755789,11.2 C107.814737,11.2 107.166316,11.3178947 106.871579,11.2589474 Z" id="路径"></path>
                <path d="M114.357895,12.7326316 L111.587368,12.6736842 L111.882105,12.2021053 L110.821053,12.2021053 L110.938947,12.0842105 L111.528421,11.6715789 C112.117895,11.1410526 112.530526,10.7284211 112.766316,10.5515789 C113.002105,10.3157895 113.532632,9.78526316 114.357895,8.90105263 L114.357895,8.25263158 L111.056842,8.25263158 L111.528421,7.48631579 L109.583158,7.48631579 L108.286316,9.19578947 L110.526316,9.19578947 L110.762105,8.90105263 L112,8.96 C111.646316,9.43157895 111.174737,9.90315789 110.644211,10.3747368 C110.526316,10.1978947 110.467368,10.0210526 110.349474,9.84421053 L108.227368,9.84421053 C108.404211,10.08 108.757895,10.5515789 109.288421,11.2589474 L107.932632,12.2021053 L109.701053,12.2610526 C109.288421,12.7915789 108.698947,13.3221053 107.873684,13.9115789 L110.408421,13.9115789 L111.056842,13.44 L111.292632,13.44 L111.705263,13.4989474 C111.705263,13.6168421 111.646316,13.7347368 111.646316,13.7936842 C111.646316,13.8526316 111.351579,14.2652632 110.762105,15.0315789 L109.76,14.1473684 L108.109474,14.2063158 L109.818947,15.8568421 C109.406316,16.3284211 108.757895,16.8589474 107.814737,17.5663158 L110.467368,17.6252632 C111.882105,16.5642105 113.178947,15.1494737 114.298947,13.3810526 L114.357895,12.7326316 Z" id="路径"></path>
                <polygon id="路径" points="102.568421 17.5663158 104.16 17.5663158 104.454737 11.2589474 103.629474 11.2589474"></polygon>
                <polygon id="路径" points="107.932632 10.2568421 106.694737 10.1978947 106.694737 8.90105263 107.873684 8.90105263 107.873684 8.60631579 107.932632 8.60631579 107.873684 8.60631579 107.932632 8.13473684 103.216842 8.13473684 103.157895 8.90105263 104.749474 8.90105263 104.749474 10.1978947 103.216842 10.1978947 103.216842 10.9052632 104.749474 10.9642105 104.631579 17.5663158 106.576842 17.5663158 106.694737 10.9642105 107.932632 10.9642105"></polygon>
                <path d="M118.248421,14.7957895 L118.543158,16.3873684 L117.187368,16.3873684 C117.835789,13.4989474 118.189474,11.8484211 118.248421,11.5536842 L120.665263,11.5536842 L120.665263,10.8463158 L115.183158,10.8463158 L115.183158,11.5536842 L116.48,11.5536842 L114.298947,17.4484211 L120.370526,17.3894737 L119.957895,14.7957895 C119.957895,14.7957895 118.248421,14.7957895 118.248421,14.7957895 Z" id="路径"></path>
                <path d="M123.494737,7.89894737 L121.490526,7.89894737 L121.431579,9.07789474 L120.370526,9.07789474 L120.370526,9.78526316 L121.431579,9.78526316 C121.372632,12.32 121.018947,14.8547368 120.429474,17.3894737 L122.610526,17.3894737 L122.728421,16.8 L123.848421,17.3894737 L125.793684,17.3894737 L126.029474,9.07789474 L123.494737,9.07789474 L123.494737,7.89894737 Z M123.966316,9.78526316 L123.789474,16.6231579 L122.846316,16.1515789 C122.964211,15.3852632 123.082105,14.56 123.2,13.7936842 C123.317895,12.4968421 123.435789,11.1410526 123.494737,9.84421053 L123.966316,9.84421053 L123.966316,9.78526316 Z" id="形状"></path>
                <polygon id="路径" points="137.877895 12.0842105 137.936842 11.3768421 127.503158 11.3768421 127.503158 12.0842105 130.273684 12.0842105 128.033684 16.7410526 128.033684 17.3305263 137.642105 17.3305263 136.816842 14.6778947 134.4 14.6778947 134.989474 16.6231579 130.509474 16.6821053 132.631579 12.0842105"></polygon>
                <polygon id="路径" points="137.347368 8.31157895 127.562105 8.31157895 127.562105 9.01894737 137.347368 9.01894737"></polygon>
                <polygon id="路径" points="119.957895 8.72421053 115.242105 8.72421053 115.183158 9.49052632 119.898947 9.49052632"></polygon>
                <path d="M14.0884211,7.19157895 C13.6168421,6.77894737 13.0863158,6.60210526 12.6147368,6.60210526 C12.1431579,6.60210526 11.6715789,6.77894737 11.2589474,7.19157895 C11.2,7.25052632 11.0821053,7.36842105 10.9052632,7.48631579 C9.90315789,8.31157895 6.77894737,11.2 6.72,11.2589474 C6.48421053,11.4947368 6.18947368,11.6126316 5.83578947,11.6126316 C5.54105263,11.6126316 5.18736842,11.4947368 4.89263158,11.1410526 C4.65684211,10.9052632 3.59578947,10.08 2.35789474,8.66526316 C1.53263158,7.84 0.943157895,7.07368421 0.943157895,7.07368421 C0.943157895,7.07368421 0.825263158,7.36842105 0.707368421,7.54526316 C0.648421053,7.72210526 0.707368421,7.84 0.707368421,7.84 C1.12,8.42947368 3.00631579,10.7284211 5.65894737,12.9684211 C6.13052632,13.3810526 6.66105263,13.5578947 7.13263158,13.5578947 C7.60421053,13.5578947 8.07578947,13.3221053 8.48842105,12.9684211 C8.54736842,12.9094737 8.66526316,12.7915789 8.84210526,12.6736842 C9.84421053,11.8484211 11.7305263,10.08 12.6147368,9.25473684 C12.7915789,9.07789474 12.9684211,8.96 13.0273684,8.90105263 C13.2631579,8.66526316 13.5578947,8.54736842 13.9115789,8.54736842 C14.2063158,8.54736842 14.5010526,8.72421053 14.8547368,9.01894737 C15.4442105,9.49052632 16.3284211,10.3157895 17.3894737,11.4947368 C18.1557895,12.32 18.8042105,13.0863158 18.8042105,13.1452632 C18.8042105,13.1452632 18.9810526,12.8505263 19.04,12.6147368 C19.0989474,12.4378947 19.04,12.3789474 19.04,12.32 C17.3305263,10.08 14.7957895,7.78105263 14.0884211,7.19157895 Z" id="路径"></path>
                <path d="M12.9684211,3.89052632 C11.7305263,3.24210526 10.3747368,3.00631579 8.96,4.06736842 C8.07578947,4.71578947 4.48,8.07578947 3.77263158,8.84210526 C3.77263158,8.84210526 4.30315789,9.43157895 5.06947368,10.0210526 C5.24631579,10.1978947 5.48210526,10.1389474 5.71789474,9.96210526 C7.13263158,8.54736842 9.96210526,6.07157895 10.3157895,5.77684211 C11.3768421,4.89263158 12.6147368,4.77473684 13.7936842,5.65894737 C16.5642105,7.72210526 19.04,11.0231579 19.4526316,11.6126316 C19.4526316,11.6126316 19.5115789,11.3178947 19.5705263,11.0231579 C19.5705263,11.0231579 19.6294737,10.7873684 19.5115789,10.5515789 C16.8,6.77894737 14.0294737,4.48 12.9684211,3.89052632 Z" id="路径"></path>
                <path d="M19.3347368,8.42947368 C19.1578947,8.07578947 18.3326316,6.60210526 17.0947368,5.18736842 C14.6778947,2.35789474 13.2042105,1.53263158 12.2021053,1.00210526 C10.9052632,0.294736842 8.42947368,0.117894737 6.01263158,2.06315789 C4.24421053,3.47789474 1.94526316,5.6 1.35578947,6.24842105 C1.35578947,6.24842105 1.76842105,6.77894737 2.47578947,7.48631579 C2.59368421,7.60421053 2.77052632,7.54526316 2.88842105,7.42736842 C4.65684211,5.71789474 6.54315789,4.00842105 7.66315789,3.12421053 C9.54947368,1.65052632 11.7305263,1.53263158 13.8526316,3.24210526 C14.6778947,3.89052632 15.3852632,4.53894737 16.3873684,5.6 C17.6842105,7.01473684 18.5684211,8.25263158 19.5115789,9.60842105 C19.5115789,9.60842105 19.5115789,9.25473684 19.3936842,8.78315789 C19.3936842,8.72421053 19.3936842,8.54736842 19.3347368,8.42947368 Z" id="路径"></path>
                <path d="M6.83789474,16.3284211 C8.07578947,16.9768421 9.43157895,17.2126316 10.8463158,16.1515789 C11.7305263,15.5031579 15.3263158,12.1431579 16.0336842,11.3768421 C16.0336842,11.3768421 15.5031579,10.7873684 14.7368421,10.1978947 C14.56,10.0210526 14.3242105,10.08 14.0884211,10.2568421 C12.6736842,11.6715789 9.84421053,14.1473684 9.49052632,14.4421053 C8.42947368,15.3263158 7.19157895,15.4442105 6.01263158,14.56 C3.24210526,12.4968421 0.766315789,9.19578947 0.353684211,8.60631579 C0.353684211,8.60631579 0.294736842,8.90105263 0.235789474,9.19578947 C0.235789474,9.19578947 0.176842105,9.43157895 0.294736842,9.66736842 C3.00631579,13.44 5.77684211,15.7389474 6.83789474,16.3284211 Z" id="路径"></path>
                <path d="M17.3305263,12.7326316 C17.2126316,12.6147368 17.0357895,12.6736842 16.9178947,12.7915789 C15.1494737,14.5010526 13.2631579,16.2105263 12.1431579,17.0947368 C10.2568421,18.5684211 8.07578947,18.6863158 5.95368421,16.9768421 C5.12842105,16.3284211 4.42105263,15.68 3.41894737,14.6189474 C2.06315789,13.2042105 1.17894737,11.9663158 0.235789474,10.6105263 C0.235789474,10.6105263 0.235789474,10.9642105 0.353684211,11.4357895 C0.353684211,11.4947368 0.412631579,11.6715789 0.471578947,11.7894737 C0.648421053,12.1431579 1.47368421,13.6168421 2.71157895,15.0315789 C5.12842105,17.8610526 6.60210526,18.6863158 7.60421053,19.2168421 C8.90105263,19.8652632 11.3768421,20.1010526 13.7936842,18.1557895 C15.5621053,16.7410526 17.8610526,14.6189474 18.4505263,13.9705263 C18.4505263,13.9705263 17.9789474,13.3810526 17.3305263,12.7326316 Z" id="路径"></path>
                <path d="M27.2336842,10.6105263 L28.1768421,10.6105263 L28.1768421,8.07578947 L31.6547368,8.07578947 L31.6547368,3.36 L28.1768421,3.36 L28.1768421,1.65052632 L27.2336842,1.65052632 L27.2336842,3.36 L23.8147368,3.36 L23.8147368,8.07578947 L27.2336842,8.07578947 L27.2336842,10.6105263 Z M28.1768421,4.12631579 L30.7115789,4.12631579 L30.7115789,7.19157895 L28.1768421,7.19157895 L28.1768421,4.12631579 Z M24.6989474,7.19157895 L24.6989474,4.12631579 L27.2336842,4.12631579 L27.2336842,7.19157895 L24.6989474,7.19157895 Z" id="形状"></path>
                <path d="M39.0231579,6.24842105 L38.3747368,6.72 L38.4336842,6.77894737 C38.6694737,7.07368421 39.0231579,7.42736842 39.3178947,7.84 L39.3768421,7.89894737 L40.0252632,7.36842105 L39.9663158,7.30947368 C39.7305263,7.01473684 39.3768421,6.66105263 39.0231579,6.24842105 L39.0231579,6.24842105 Z" id="路径"></path>
                <polygon id="路径" points="38.1389474 6.18947368 40.0252632 6.18947368 40.0252632 5.42315789 38.1389474 5.42315789 38.1389474 4.24421053 40.2021053 4.24421053 40.2021053 3.47789474 35.2505263 3.47789474 35.2505263 4.24421053 37.3136842 4.24421053 37.3136842 5.42315789 35.4273684 5.42315789 35.4273684 6.18947368 37.3136842 6.18947368 37.3136842 8.01684211 35.0736842 8.01684211 35.0736842 8.78315789 40.3789474 8.78315789 40.3789474 8.01684211 38.1389474 8.01684211"></polygon>
                <path d="M33.7768421,10.3747368 L41.7347368,10.3747368 L41.7347368,1.94526316 L33.7768421,1.94526316 L33.7768421,10.3747368 Z M34.6021053,2.77052632 L40.8505263,2.77052632 L40.8505263,9.54947368 L34.6021053,9.54947368 L34.6021053,2.77052632 Z" id="形状"></path>
                <path d="M43.9157895,8.72421053 C44.2694737,8.19368421 44.6231579,7.60421053 44.8589474,7.01473684 L44.8589474,10.6105263 L45.6842105,10.6105263 L45.6842105,6.66105263 C45.9789474,6.95578947 46.2736842,7.19157895 46.5094737,7.42736842 L46.5684211,7.48631579 L47.1578947,6.83789474 L47.0989474,6.77894737 C46.6863158,6.42526316 45.6842105,5.6 45.6842105,5.6 L45.6842105,5.18736842 L46.9221053,5.18736842 L46.9221053,4.36210526 L45.6842105,4.36210526 L45.6842105,3.06526316 C46.5684211,2.94736842 46.9221053,2.82947368 46.9221053,2.82947368 L46.7452632,2.00421053 C46.7452632,2.00421053 45.9789474,2.18105263 45.1536842,2.29894737 C44.1515789,2.41684211 43.5031579,2.47578947 43.5031579,2.47578947 L43.6210526,3.30105263 C43.6210526,3.30105263 44.3284211,3.24210526 44.8,3.12421053 L44.8,4.36210526 L43.3852632,4.36210526 L43.3852632,5.18736842 L44.6821053,5.18736842 C44.3284211,6.24842105 43.7978947,7.30947368 43.2084211,8.13473684 C43.2673684,8.07578947 43.8568421,8.72421053 43.9157895,8.72421053 Z" id="路径"></path>
                <path d="M50.2231579,5.77684211 L49.3978947,5.65894737 C49.5747368,5.6 49.6926316,5.48210526 49.8694737,5.36421053 C50.8715789,4.71578947 51.52,4.00842105 51.9915789,3.18315789 L51.9915789,3.18315789 L51.9915789,2.41684211 L49.1031579,2.41684211 C49.2210526,2.29894737 49.28,2.12210526 49.3389474,1.94526316 L49.3978947,1.88631579 L48.6315789,1.59157895 L48.5726316,1.65052632 C48.1010526,2.53473684 47.5115789,3.36 46.6863158,4.00842105 C46.6863158,4.00842105 47.0989474,4.36210526 47.3936842,4.53894737 C47.8652632,4.06736842 48.2778947,3.65473684 48.6315789,3.24210526 L51.0484211,3.24210526 C50.6357895,3.77263158 50.2231579,4.24421053 49.6926316,4.53894737 C49.3978947,4.24421053 49.1031579,4.00842105 48.6905263,3.71368421 L48.6315789,3.65473684 L48.1010526,4.24421053 L48.16,4.30315789 C48.5136842,4.59789474 48.7494737,4.77473684 48.9852632,5.01052632 C48.3368421,5.36421053 47.6294737,5.6 46.8631579,5.83578947 L47.3936842,6.54315789 C47.8652632,6.36631579 48.8084211,5.95368421 49.2210526,5.77684211 C48.6905263,6.83789474 47.4526316,7.72210526 46.6273684,8.19368421 C46.6273684,8.19368421 46.9810526,8.60631579 47.2757895,8.78315789 C48.6315789,8.19368421 49.5157895,7.01473684 49.5157895,7.01473684 L51.2842105,7.01473684 C51.1663158,7.66315789 50.6357895,8.42947368 49.8694737,8.90105263 C49.5747368,8.60631579 49.28,8.31157895 48.9263158,7.95789474 L48.3368421,8.48842105 C48.6315789,8.78315789 48.9263158,9.07789474 49.1621053,9.31368421 C47.9831579,9.84421053 46.4505263,9.90315789 46.4505263,9.90315789 L46.7452632,10.6105263 C46.7452632,10.6105263 51.3431579,10.4926316 52.2273684,6.95578947 L52.2273684,6.18947368 L49.9873684,6.18947368 C50.1642105,5.95368421 50.2231579,5.77684211 50.2231579,5.77684211 Z" id="路径"></path>
                <rect id="矩形" x="53.8189474" y="2.47578947" width="3.71368421" height="1"></rect>
                <path d="M53.4652632,9.19578947 L53.7010526,9.78526316 C53.7010526,9.78526316 56.1178947,9.13684211 56.8252632,9.01894737 L56.8842105,9.25473684 L57.7094737,8.96 C57.4147368,8.31157895 57.0610526,7.36842105 56.7073684,6.72 L56.6484211,6.66105263 L55.8821053,7.01473684 L55.9410526,7.07368421 C56.1178947,7.54526316 56.3536842,7.95789474 56.5305263,8.37052632 L54.5852632,8.84210526 C54.9978947,8.13473684 55.5873684,6.54315789 55.8821053,5.65894737 L57.9452632,5.65894737 L57.9452632,4.83368421 L53.4652632,4.83368421 L53.4652632,5.65894737 L54.9389474,5.65894737 C54.88,6.13052632 54.3494737,7.66315789 53.6421053,8.96 C53.5831579,9.07789474 53.4652632,9.19578947 53.4652632,9.19578947 Z" id="路径"></path>
                <path d="M59.7136842,1.76842105 L59.7136842,1.65052632 L58.8294737,1.65052632 L58.8294737,1.76842105 C58.8294737,2.35789474 58.8294737,2.94736842 58.8294737,3.53684211 L57.6505263,3.53684211 L57.6505263,4.36210526 L58.7705263,4.36210526 L58.7705263,5.48210526 C58.7705263,7.19157895 58.4757895,8.07578947 57.8273684,9.07789474 C57.4147368,9.66736842 56.7073684,10.1389474 56.7073684,10.1389474 L57.3557895,10.7873684 C57.3557895,10.7873684 59.6547368,9.60842105 59.6547368,5.83578947 L59.6547368,4.36210526 L61.1873684,4.36210526 C61.1873684,5.89473684 61.1284211,7.36842105 61.0105263,8.84210526 C61.0105263,9.31368421 60.8336842,9.49052632 60.4210526,9.49052632 C60.0673684,9.49052632 59.4189474,9.49052632 59.4189474,9.49052632 C59.4778947,9.78526316 59.5957895,10.3747368 59.5957895,10.3747368 C59.5957895,10.3747368 60.3031579,10.3747368 60.6568421,10.3747368 C61.4231579,10.3747368 61.8357895,9.90315789 61.8947368,9.01894737 C61.9536842,7.66315789 62.0126316,5.83578947 62.0715789,3.59578947 L62.0715789,3.53684211 L59.6547368,3.53684211 C59.7136842,2.88842105 59.7136842,2.29894737 59.7136842,1.76842105 Z" id="路径"></path>
                <path d="M31.8905263,14.1473684 C31.7726316,14.0294737 31.6547368,13.9705263 31.5368421,13.9705263 C31.2421053,13.9115789 31.0063158,13.9115789 30.7705263,13.9705263 C30.6526316,13.9705263 30.5347368,14.0294737 30.4757895,14.0884211 C30.3578947,14.1473684 30.2989474,14.2063158 30.1810526,14.2652632 C30.1221053,14.3242105 30.1221053,14.3242105 30.0631579,14.3831579 L30.0631579,12.2021053 L29.3557895,12.2021053 L29.3557895,17.5663158 L30.0631579,17.5663158 L30.0631579,15.0905263 C30.1810526,14.9136842 30.2989474,14.7957895 30.4757895,14.6778947 C30.6526316,14.56 30.8294737,14.5010526 31.0063158,14.5010526 C31.2421053,14.5010526 31.36,14.56 31.4778947,14.6778947 C31.5957895,14.7957895 31.5957895,14.9726316 31.5957895,15.2673684 L31.5957895,17.5073684 L32.3031579,17.5073684 L32.3031579,15.1494737 C32.3031579,14.9136842 32.2442105,14.6778947 32.1852632,14.5010526 C32.1263158,14.3831579 32.0084211,14.2063158 31.8905263,14.1473684 Z" id="路径"></path>
                <rect id="矩形" x="33.0694737" y="12.5557895" width="1" height="1"></rect>
                <rect id="矩形" x="33.0694737" y="13.9705263" width="1" height="3.53684211"></rect>
                <path d="M37.0778947,14.1473684 C36.96,14.0294737 36.8421053,13.9705263 36.7242105,13.9115789 C36.4884211,13.8526316 36.1347368,13.8526316 35.8989474,13.9115789 C35.7810526,13.9115789 35.6631579,13.9705263 35.6042105,14.0294737 C35.4863158,14.0884211 35.4273684,14.1473684 35.3094737,14.2063158 C35.2505263,14.2652632 35.1915789,14.2652632 35.1915789,14.3242105 L35.0736842,13.9115789 L34.5431579,13.9115789 L34.5431579,17.4484211 L35.2505263,17.4484211 L35.2505263,14.9726316 C35.3684211,14.7957895 35.5452632,14.6778947 35.6631579,14.56 C35.84,14.4421053 36.0168421,14.3831579 36.1936842,14.3831579 C36.3705263,14.3831579 36.5473684,14.4421053 36.6652632,14.56 C36.7831579,14.6778947 36.8421053,14.8547368 36.8421053,15.1494737 L36.8421053,17.3894737 L37.5494737,17.3894737 L37.5494737,15.0315789 C37.5494737,14.7957895 37.4905263,14.6189474 37.4315789,14.4421053 C37.2547368,14.3831579 37.1957895,14.2652632 37.0778947,14.1473684 Z" id="路径"></path>
                <path d="M40.6736842,14.56 C40.5557895,14.3242105 40.3789474,14.1473684 40.2021053,14.0294737 C39.9663158,13.9115789 39.6715789,13.8526316 39.3178947,13.8526316 C39.2,13.8526316 39.1410526,13.8526316 39.0231579,13.8526316 C38.9052632,13.8526316 38.8463158,13.8526316 38.7284211,13.9115789 C38.6694737,13.9115789 38.5515789,13.9705263 38.4926316,13.9705263 C38.4336842,13.9705263 38.3157895,14.0294737 38.2568421,14.0294737 L38.1978947,14.0294737 L38.1978947,14.6189474 L38.3157895,14.56 C38.4926316,14.5010526 38.6105263,14.4421053 38.7873684,14.4421053 C38.9642105,14.3831579 39.0821053,14.3831579 39.2589474,14.3831579 C39.4947368,14.3831579 39.6715789,14.4421053 39.7894737,14.5010526 C39.9073684,14.56 40.0252632,14.6778947 40.0842105,14.7368421 C40.0842105,14.7957895 40.1431579,14.8547368 40.1431579,14.9136842 C40.1431579,14.9726316 40.1431579,15.0905263 40.1431579,15.1494737 L40.1431579,15.2673684 C40.0252632,15.2084211 39.9073684,15.2084211 39.7894737,15.2084211 C39.6126316,15.2084211 39.4947368,15.1494737 39.2589474,15.1494737 C39.0821053,15.1494737 38.9052632,15.1494737 38.7284211,15.2084211 C38.5515789,15.2673684 38.4336842,15.3263158 38.3157895,15.4442105 C38.1978947,15.5621053 38.08,15.68 38.0210526,15.7978947 C37.9621053,15.9157895 37.9031579,16.0926316 37.9031579,16.2694737 C37.9031579,16.4463158 37.9621053,16.6231579 37.9621053,16.7410526 C38.0210526,16.8589474 38.08,17.0357895 38.1978947,17.0947368 C38.3157895,17.2126316 38.4336842,17.2715789 38.5515789,17.3305263 C38.6694737,17.3894737 38.8463158,17.3894737 39.0231579,17.3894737 C39.1410526,17.3894737 39.2589474,17.3894737 39.3768421,17.3305263 C39.4947368,17.3305263 39.6126316,17.2715789 39.6715789,17.2126316 C39.7894737,17.1536842 39.8484211,17.0947368 39.9073684,17.0357895 C39.9663158,17.0357895 39.9663158,16.9768421 40.0252632,16.9768421 L40.0842105,17.2715789 L40.6736842,17.2715789 L40.6736842,14.9136842 C40.6736842,14.7957895 40.6736842,14.6778947 40.6736842,14.56 C40.7326316,14.7368421 40.7326316,14.6778947 40.6736842,14.56 Z M40.0842105,16.6231579 C40.0842105,16.6231579 40.0252632,16.6821053 39.9663158,16.6821053 C39.9073684,16.7410526 39.8484211,16.8 39.7894737,16.8 C39.7305263,16.8589474 39.6126316,16.8589474 39.5536842,16.9178947 C39.3768421,16.9768421 39.2,16.9768421 39.0231579,16.9178947 C38.9642105,16.9178947 38.9052632,16.8589474 38.8463158,16.8 C38.7873684,16.7410526 38.7284211,16.6821053 38.7284211,16.6231579 C38.7284211,16.5642105 38.6694737,16.4463158 38.6694737,16.3873684 C38.6694737,16.2105263 38.7284211,16.0926316 38.8463158,15.9747368 C38.9642105,15.8568421 39.1410526,15.8568421 39.3768421,15.8568421 C39.5536842,15.8568421 39.6715789,15.8568421 39.8484211,15.9157895 C39.9663158,15.9157895 40.0842105,15.9747368 40.1431579,15.9747368 L40.1431579,16.6231579 L40.0842105,16.6231579 L40.0842105,16.6231579 Z" id="形状"></path>
                <path d="M28,15.9747368 C27.6463158,16.5642105 27.0568421,16.9178947 26.3494737,16.9178947 C25.2884211,16.9178947 24.4631579,16.0926316 24.4631579,15.0315789 C24.4631579,13.9705263 25.2884211,13.1452632 26.3494737,13.1452632 C26.9978947,13.1452632 27.6463158,13.4989474 28,14.0884211 L28,14.1473684 L28.7073684,14.1473684 L28.6484211,14.0294737 C28.2357895,13.0863158 27.2926316,12.4968421 26.2905263,12.4968421 C24.8757895,12.4968421 23.7557895,13.6168421 23.7557895,15.0315789 C23.7557895,16.4463158 24.9347368,17.5663158 26.2905263,17.5663158 C27.2926316,17.5663158 28.2357895,16.9768421 28.6484211,16.0336842 L28.7073684,15.9157895 L28,15.9747368 L28,15.9747368 Z" id="路径"></path>
                <path d="M45.7431579,15.3263158 C45.6252632,15.5621053 45.5073684,15.9157895 45.3894737,16.3284211 C45.2715789,15.9747368 45.1536842,15.6210526 45.0357895,15.3263158 L43.8568421,12.5557895 L42.9136842,12.5557895 L42.9136842,17.5073684 L43.6210526,17.5073684 L43.6210526,15.0905263 C43.6210526,14.6189474 43.6210526,14.1473684 43.5621053,13.6168421 C43.68,13.9705263 43.7978947,14.2652632 43.9747368,14.6189474 L45.2126316,17.5073684 L45.5663158,17.5073684 L46.8042105,14.6189474 C46.9221053,14.3242105 47.04,14.0294737 47.2168421,13.6168421 C47.2168421,14.1473684 47.1578947,14.6778947 47.1578947,15.0905263 L47.1578947,17.5073684 L47.8652632,17.5073684 L47.8652632,12.5557895 L46.9221053,12.5557895 L45.7431579,15.3263158 Z" id="路径"></path>
                <path d="M55.4694737,14.56 C55.4105263,14.4421053 55.2926316,14.3242105 55.1747368,14.2063158 C55.0568421,14.0884211 54.9389474,14.0294737 54.8210526,13.9705263 C54.7031579,13.9115789 54.5852632,13.8526316 54.4673684,13.8526316 C54.3494737,13.8526316 54.2315789,13.7936842 54.1726316,13.7936842 C53.9368421,13.7936842 53.76,13.8526316 53.5831579,13.9115789 C53.4652632,13.9705263 53.3473684,14.0294737 53.2294737,14.1473684 L53.2294737,12.1431579 L52.5221053,12.1431579 L52.5221053,17.5073684 L53.0526316,17.5073684 L53.1705263,17.2126316 C53.1705263,17.2126316 53.1705263,17.2126316 53.2294737,17.2715789 C53.2884211,17.3305263 53.3473684,17.3894737 53.4063158,17.4484211 C53.4652632,17.5073684 53.5831579,17.5663158 53.7010526,17.5663158 C53.8189474,17.6252632 53.9368421,17.6252632 54.1136842,17.6252632 C54.2905263,17.6252632 54.5263158,17.5663158 54.7031579,17.5073684 C54.88,17.4484211 55.0568421,17.3305263 55.2336842,17.1536842 C55.3515789,16.9768421 55.5284211,16.8 55.5873684,16.5642105 C55.7052632,16.3284211 55.7052632,16.0336842 55.7052632,15.7389474 C55.7052632,15.5031579 55.7052632,15.2673684 55.6463158,15.0905263 C55.5873684,14.8547368 55.5284211,14.7368421 55.4694737,14.56 Z M54.9389474,16.2694737 C54.88,16.4463158 54.8210526,16.5642105 54.7621053,16.6821053 C54.7031579,16.8 54.5852632,16.8589474 54.4673684,16.9178947 C54.3494737,16.9768421 54.2315789,17.0357895 54.0547368,17.0357895 C53.9368421,17.0357895 53.8778947,17.0357895 53.76,16.9768421 C53.7010526,16.9178947 53.5831579,16.9178947 53.5242105,16.8589474 C53.4652632,16.8 53.4063158,16.7410526 53.3473684,16.7410526 C53.2884211,16.6821053 53.2884211,16.6821053 53.2294737,16.6231579 L53.2294737,14.9136842 C53.3473684,14.7957895 53.4652632,14.7368421 53.5831579,14.6778947 C53.8189474,14.56 54.1136842,14.56 54.3494737,14.6189474 C54.4673684,14.6778947 54.5263158,14.7368421 54.6442105,14.7957895 C54.7621053,14.8547368 54.8210526,15.0315789 54.88,15.1494737 C54.9389474,15.3263158 54.9978947,15.5031579 54.9978947,15.7978947 C54.9978947,15.9157895 54.9978947,16.0926316 54.9389474,16.2694737 Z" id="形状"></path>
                <rect id="矩形" x="56.2947368" y="13.9705263" width="1" height="3.53684211"></rect>
                <rect id="矩形" x="56.2947368" y="12.5557895" width="1" height="1"></rect>
                <rect id="矩形" x="57.7684211" y="12.2021053" width="1" height="5.36421053"></rect>
                <path d="M61.6,14.2652632 C61.4821053,14.1473684 61.3052632,14.0294737 61.1284211,13.9705263 C60.7747368,13.8526316 60.3621053,13.8526316 59.9494737,13.9705263 C59.7726316,14.0294737 59.5957895,14.1473684 59.4189474,14.3242105 C59.2421053,14.5010526 59.1242105,14.6778947 59.0652632,14.9136842 C59.0063158,15.1494737 58.9473684,15.4442105 58.9473684,15.7389474 C58.9473684,16.0336842 59.0063158,16.3284211 59.0652632,16.5642105 C59.1831579,16.8 59.3010526,16.9768421 59.4778947,17.1536842 C59.6547368,17.2715789 59.8315789,17.3894737 60.0673684,17.4484211 C60.3031579,17.5073684 60.5389474,17.5663158 60.7747368,17.5663158 C61.0105263,17.5663158 61.1873684,17.5663158 61.3642105,17.5073684 C61.5410526,17.4484211 61.7178947,17.4484211 61.8357895,17.3894737 L61.8947368,17.3894737 L61.8947368,16.8 L61.7768421,16.8589474 C61.6,16.9178947 61.4821053,16.9768421 61.3052632,16.9768421 C61.1873684,16.9768421 61.0105263,17.0357895 60.8336842,17.0357895 C60.6568421,17.0357895 60.48,17.0357895 60.3621053,16.9768421 C60.2442105,16.9178947 60.0673684,16.8589474 60.0084211,16.8 C59.8905263,16.7410526 59.8315789,16.6231579 59.7726316,16.4463158 C59.7136842,16.3284211 59.7136842,16.1515789 59.6547368,15.9747368 L62.0126316,15.9747368 L62.0126316,15.9157895 C62.0126316,15.8568421 62.0126316,15.7978947 62.0126316,15.7978947 L62.0126316,15.7389474 C62.0126316,15.4442105 61.9536842,15.1494737 61.8947368,14.9136842 C61.8357895,14.6189474 61.7768421,14.4421053 61.6,14.2652632 Z M59.7136842,15.3263158 C59.7136842,15.2084211 59.7726316,15.1494737 59.7726316,15.0315789 C59.8315789,14.9136842 59.8905263,14.8547368 59.9494737,14.7368421 C60.0084211,14.6778947 60.1263158,14.6189474 60.2442105,14.56 C60.4210526,14.4421053 60.7157895,14.4421053 60.8926316,14.56 C61.0105263,14.6189474 61.0694737,14.6778947 61.1284211,14.7368421 C61.1873684,14.7957895 61.2463158,14.9136842 61.2463158,15.0315789 C61.2463158,15.1494737 61.3052632,15.2084211 61.3052632,15.3263158 L59.7136842,15.3263158 Z" id="形状"></path>
                <path d="M50.2231579,13.8526316 C49.2210526,13.8526316 48.3368421,14.6778947 48.3368421,15.7389474 C48.3368421,16.7410526 49.1621053,17.6252632 50.2231579,17.6252632 C51.2252632,17.6252632 52.1094737,16.8 52.1094737,15.7389474 C52.1094737,14.6778947 51.2252632,13.8526316 50.2231579,13.8526316 Z M50.2231579,16.9768421 C49.5157895,16.9768421 48.9852632,16.3873684 48.9852632,15.7389474 C48.9852632,15.0315789 49.5747368,14.5010526 50.2231579,14.5010526 C50.9305263,14.5010526 51.4610526,15.0905263 51.4610526,15.7389474 C51.4610526,16.4463158 50.9305263,16.9768421 50.2231579,16.9768421 Z" id="形状"></path>
                <rect id="矩形" x="69.0863158" y="1.65052632" width="1" height="15.9157895"></rect>
            </g>
        </g>
    </g>
</svg>